<?xml version="1.0" encoding="iso-8859-1"?>
<!-- Generator: Adobe Illustrator 19.0.0, SVG Export Plug-In . SVG Version: 6.00 Build 0)  -->
<svg version="1.1" id="Capa_1" xmlns="http://www.w3.org/2000/svg" xmlns:xlink="http://www.w3.org/1999/xlink" x="0px" y="0px"
	 viewBox="0 0 512 512" style="enable-background:new 0 0 512 512;" xml:space="preserve">
<g>
	<polygon style="fill:#555160;" points="334.102,286.373 334.102,485.966 360.136,512 386.169,485.966 386.169,451.254 
		368.814,433.898 386.169,416.542 386.169,407.864 368.814,390.508 386.169,373.153 386.169,364.475 368.814,347.119 
		386.169,329.763 386.169,286.373 	"/>
	<path style="fill:#555160;" d="M290.712,208.271c-57.483-0.061-104.075-46.653-104.136-104.136h17.356
		c0,47.928,38.851,86.78,86.78,86.78c22.146,0,43.451-8.47,59.557-23.665l11.915,12.618
		C342.884,198.144,317.292,208.315,290.712,208.271z"/>
</g>
<path style="fill:#FFBC05;" d="M368.814,121.492h-17.356c-38.339,0-69.424,31.084-69.424,69.424v60.746
	c0,19.17,15.542,34.712,34.712,34.712h86.78c19.17,0,34.712-15.542,34.712-34.712v-60.746
	C438.237,152.576,407.153,121.492,368.814,121.492z M377.492,190.915H342.78c-9.589,0-17.356-7.767-17.356-17.356
	c0-9.589,7.767-17.356,17.356-17.356h34.712c9.589,0,17.356,7.767,17.356,17.356C394.847,183.148,387.081,190.915,377.492,190.915z"
	/>
<path style="fill:#555160;" d="M186.576,251.661c-14.188,0.026-28.047-4.322-39.676-12.453l9.919-14.232
	c23.595,16.436,56.051,10.631,72.487-12.974c6.083-8.73,9.337-19.118,9.337-29.765H256
	C255.957,220.559,224.898,251.618,186.576,251.661z"/>
<path style="fill:#2B2733;" d="M151.864,173.559c-43.138,0-78.102,34.964-78.102,78.102v164.881
	c0,19.17,15.542,34.712,34.712,34.712h86.78c19.17,0,34.712-15.542,34.712-34.712V251.661
	C229.966,208.523,195.003,173.559,151.864,173.559z M177.898,251.661h-60.746v-13.017c0-16.775,13.598-30.373,30.373-30.373
	s30.373,13.598,30.373,30.373V251.661z"/>
<path style="fill:#D12136;" d="M177.898,286.373h-52.068c-9.589,0-17.356,7.767-17.356,17.356v95.458
	c0,9.589,7.767,17.356,17.356,17.356h52.068c9.589,0,17.356-7.767,17.356-17.356v-95.458
	C195.254,294.14,187.487,286.373,177.898,286.373z"/>
<rect x="108.475" y="364.475" style="fill:#2B2733;" width="86.78" height="17.356"/>
<g>
	<path style="fill:#555160;" d="M362.184,179.868l-11.915-12.618c17.46-16.341,27.318-39.207,27.223-63.115
		c0-47.928-38.851-86.78-86.78-86.78s-86.78,38.851-86.78,86.78h-17.356C186.576,46.627,233.203,0,290.712,0
		s104.136,46.627,104.136,104.136C394.96,132.825,383.132,160.265,362.184,179.868z"/>
	<path style="fill:#555160;" d="M146.892,239.208c-31.458-21.921-39.198-65.189-17.278-96.646s65.189-39.198,96.646-17.278
		C244.892,138.257,256,159.527,256,182.237h-17.356c0-28.759-23.318-52.068-52.076-52.059c-28.759,0-52.068,23.318-52.059,52.076
		c0,17.035,8.34,32.994,22.32,42.73L146.892,239.208z"/>
</g>
<rect x="108.475" y="321.085" style="fill:#2B2733;" width="86.78" height="17.356"/>
<path style="fill:#1A1721;" d="M195.254,338.345v60.841c0,9.589-7.767,17.356-17.356,17.356h-52.068
	c-9.589,0-17.356-7.767-17.356-17.356v-6.691c-11.316,4.148-22.919,7.472-34.712,9.945v14.102c0,19.17,15.542,34.712,34.712,34.712
	h86.78c19.17,0,34.712-15.542,34.712-34.712V297.489C219.874,312.294,208.236,325.988,195.254,338.345z"/>
<g>
	<path style="fill:#9C1928;" d="M108.475,392.496v6.691c0,9.589,7.767,17.356,17.356,17.356h52.068
		c9.589,0,17.356-7.767,17.356-17.356v-17.356h-62.074C125.145,385.831,116.892,389.389,108.475,392.496z"/>
	<path style="fill:#9C1928;" d="M195.254,364.475v-26.129c-10.023,9.572-20.818,18.319-32.273,26.129H195.254z"/>
</g>
<path style="fill:#1A1721;" d="M133.181,381.831h62.074v-17.356h-32.273C153.452,370.931,143.499,376.728,133.181,381.831z"/>
<path style="fill:#E38100;" d="M293.315,277.122c6.361,5.927,14.735,9.233,23.431,9.251h86.78c19.17,0,34.712-15.542,34.712-34.712
	v-60.746c0-0.607-0.078-1.198-0.087-1.796C407.326,240.527,353.15,273.451,293.315,277.122z"/>
<path style="fill:#3B3944;" d="M386.169,327.793v-41.42h-52.068v19.881C352.751,309.777,370.48,317.11,386.169,327.793z"/>
<g>
</g>
<g>
</g>
<g>
</g>
<g>
</g>
<g>
</g>
<g>
</g>
<g>
</g>
<g>
</g>
<g>
</g>
<g>
</g>
<g>
</g>
<g>
</g>
<g>
</g>
<g>
</g>
<g>
</g>
</svg>
