<?xml version="1.0" encoding="iso-8859-1"?>
<!-- Generator: Adobe Illustrator 19.0.0, SVG Export Plug-In . SVG Version: 6.00 Build 0)  -->
<svg version="1.1" id="Capa_1" xmlns="http://www.w3.org/2000/svg" xmlns:xlink="http://www.w3.org/1999/xlink" x="0px" y="0px"
	 viewBox="0 0 512 512" style="enable-background:new 0 0 512 512;" xml:space="preserve">
<rect x="153.6" y="4.267" style="fill:#FFBC05;" width="204.8" height="494.933"/>
<path style="fill:#E38100;" d="M153.6,302.251V499.2h204.8V160.512C306.483,227.849,234.914,277.376,153.6,302.251z"/>
<path style="fill:#D12136;" d="M358.4,439.467c-23.552-0.026-42.641-19.115-42.667-42.667v-68.267H332.8V396.8
	c0,14.14,11.46,25.6,25.6,25.6s25.6-11.46,25.6-25.6V174.933c0-23.561,19.106-42.667,42.667-42.667s42.667,19.106,42.667,42.667
	v76.8c0,14.14,11.46,25.6,25.6,25.6H512V294.4h-17.067c-23.552-0.026-42.641-19.115-42.667-42.667v-76.8
	c0-14.14-11.46-25.6-25.6-25.6s-25.6,11.46-25.6,25.6V396.8C401.041,420.352,381.952,439.441,358.4,439.467z"/>
<rect y="490.667" style="fill:#874D1B;" width="512" height="17.067"/>
<rect x="187.733" y="38.4" style="fill:#EDEDEE;" width="136.533" height="187.733"/>
<rect x="264.533" y="157.867" style="fill:#E38100;" width="34.133" height="34.133"/>
<path style="fill:#C7C7D3;" d="M298.667,192h-34.133v-12.902c-24.209,12.245-50.082,20.873-76.8,25.6v21.436h136.533v-87.671
	c-8.132,7.228-16.683,13.978-25.6,20.207V192z"/>
<path style="fill:#B76400;" d="M298.667,192v-33.331c-10.88,7.612-22.281,14.438-34.133,20.429V192H298.667z"/>
<rect x="221.867" y="72.533" style="fill:#23AEC8;" width="68.267" height="51.2"/>
<path style="fill:#1967A3;" d="M281.6,81.067c2.884,0,5.726,0.154,8.533,0.427v-8.96h-68.267v32.973
	C237.79,89.822,259.251,81.041,281.6,81.067z"/>
<circle style="fill:#D12136;" cx="256" cy="328.533" r="76.8"/>
<path style="fill:#9C1928;" d="M325.342,295.68c-18.116-38.323-63.881-54.699-102.204-36.582
	c-38.323,18.116-54.699,63.881-36.582,102.204c8.789,18.586,24.661,32.87,44.066,39.646
	C232.721,347.622,272.538,303.377,325.342,295.68z"/>
<path style="fill:#555160;" d="M256,251.733c-42.419,0.034-76.766,34.449-76.732,76.868c0.026,31.241,18.978,59.358,47.932,71.1
	v-71.168c0-15.906,12.894-28.8,28.8-28.8c15.906,0,28.8,12.894,28.8,28.8v71.168c39.305-15.94,58.24-60.732,42.3-100.036
	C315.358,270.711,287.241,251.759,256,251.733z"/>
<g>
	<path style="fill:#3B3944;" d="M194.091,373.76c8.414,11.554,19.883,20.548,33.109,25.967v-12.45
		C215.253,385.459,203.904,380.826,194.091,373.76z"/>
	<path style="fill:#3B3944;" d="M301.047,266.419c24.755,33.946,17.519,81.493-16.213,106.539v26.743
		c39.279-15.863,58.257-60.57,42.394-99.857C321.818,286.464,312.747,274.876,301.047,266.419z"/>
</g>
<g>
</g>
<g>
</g>
<g>
</g>
<g>
</g>
<g>
</g>
<g>
</g>
<g>
</g>
<g>
</g>
<g>
</g>
<g>
</g>
<g>
</g>
<g>
</g>
<g>
</g>
<g>
</g>
<g>
</g>
</svg>
